# xmcd
#
# Track frame offsets: 
#        150
#        16259
#        36302
#        56327
#
# Disc length: 939 seconds
#
# Revision: 0
# Processed by: cddbd v1.5.2PL0 Copyright (c) Steve Scherf et al.
# Submitted via: ExactAudioCopy v0.95b4
#
DISCID=2803a904
DTITLE=Mad Rebels - We need boys
DYEAR=2002
DGENRE=
TTITLE0=We need boys (radio edit)
TTITLE1=We need boys (dj speedbreaker mix)
TTITLE2=I´ll never understand this feeling
TTITLE3=We need boys (young girls-pecial version)
EXTD=
EXTT0=
EXTT1=
EXTT2=
EXTT3=
PLAYORDER=
